<mxfile host="Electron" modified="2024-07-01T08:01:11.697Z" agent="Mozilla/5.0 (Windows NT 10.0; Win64; x64) AppleWebKit/537.36 (KHTML, like Gecko) draw.io/22.0.3 Chrome/114.0.5735.289 Electron/25.8.4 Safari/537.36" etag="4FwausCN6M1qKa4Nv22g" version="22.0.3" type="device">
  <diagram name="Page-1" id="nK2WXWRi20c_EiZxqpP3">
    <mxGraphModel dx="1404" dy="926" grid="1" gridSize="10" guides="1" tooltips="1" connect="1" arrows="1" fold="1" page="1" pageScale="1" pageWidth="1654" pageHeight="1169" math="0" shadow="0">
      <root>
        <mxCell id="0" />
        <mxCell id="1" parent="0" />
        <mxCell id="x96Iq67qb-lbHD9PgbYm-14" style="edgeStyle=orthogonalEdgeStyle;curved=1;rounded=0;orthogonalLoop=1;jettySize=auto;html=1;exitX=1;exitY=0.5;exitDx=0;exitDy=0;entryX=0;entryY=0.5;entryDx=0;entryDy=0;" edge="1" parent="1" source="x96Iq67qb-lbHD9PgbYm-1" target="x96Iq67qb-lbHD9PgbYm-2">
          <mxGeometry relative="1" as="geometry" />
        </mxCell>
        <mxCell id="x96Iq67qb-lbHD9PgbYm-1" value="Droite" style="ellipse;whiteSpace=wrap;html=1;aspect=fixed;" vertex="1" parent="1">
          <mxGeometry x="340" y="280" width="80" height="80" as="geometry" />
        </mxCell>
        <mxCell id="x96Iq67qb-lbHD9PgbYm-20" style="edgeStyle=orthogonalEdgeStyle;curved=1;rounded=0;orthogonalLoop=1;jettySize=auto;html=1;exitX=1;exitY=0.5;exitDx=0;exitDy=0;entryX=0;entryY=0.5;entryDx=0;entryDy=0;" edge="1" parent="1" source="x96Iq67qb-lbHD9PgbYm-2" target="x96Iq67qb-lbHD9PgbYm-3">
          <mxGeometry relative="1" as="geometry" />
        </mxCell>
        <mxCell id="x96Iq67qb-lbHD9PgbYm-2" value="Retenue" style="ellipse;whiteSpace=wrap;html=1;aspect=fixed;" vertex="1" parent="1">
          <mxGeometry x="500" y="280" width="80" height="80" as="geometry" />
        </mxCell>
        <mxCell id="x96Iq67qb-lbHD9PgbYm-3" value="Fin" style="ellipse;whiteSpace=wrap;html=1;aspect=fixed;" vertex="1" parent="1">
          <mxGeometry x="680" y="280" width="80" height="80" as="geometry" />
        </mxCell>
        <mxCell id="x96Iq67qb-lbHD9PgbYm-10" style="edgeStyle=orthogonalEdgeStyle;curved=1;rounded=0;orthogonalLoop=1;jettySize=auto;html=1;exitX=0;exitY=0;exitDx=0;exitDy=0;entryX=1;entryY=0;entryDx=0;entryDy=0;" edge="1" parent="1" source="x96Iq67qb-lbHD9PgbYm-1" target="x96Iq67qb-lbHD9PgbYm-1">
          <mxGeometry relative="1" as="geometry">
            <Array as="points">
              <mxPoint x="320" y="292" />
              <mxPoint x="320" y="220" />
              <mxPoint x="440" y="220" />
              <mxPoint x="440" y="292" />
            </Array>
          </mxGeometry>
        </mxCell>
        <mxCell id="x96Iq67qb-lbHD9PgbYm-13" value="1, 0&amp;nbsp;→ R" style="text;strokeColor=none;align=center;fillColor=none;html=1;verticalAlign=middle;whiteSpace=wrap;rounded=0;" vertex="1" parent="1">
          <mxGeometry x="350" y="220" width="60" height="30" as="geometry" />
        </mxCell>
        <mxCell id="x96Iq67qb-lbHD9PgbYm-17" value="␣&amp;nbsp;→ L" style="text;strokeColor=none;align=center;fillColor=none;html=1;verticalAlign=middle;whiteSpace=wrap;rounded=0;" vertex="1" parent="1">
          <mxGeometry x="430" y="320" width="60" height="30" as="geometry" />
        </mxCell>
        <mxCell id="x96Iq67qb-lbHD9PgbYm-18" style="edgeStyle=orthogonalEdgeStyle;curved=1;rounded=0;orthogonalLoop=1;jettySize=auto;html=1;exitX=0;exitY=0;exitDx=0;exitDy=0;entryX=1;entryY=0;entryDx=0;entryDy=0;" edge="1" parent="1">
          <mxGeometry relative="1" as="geometry">
            <mxPoint x="512" y="292" as="sourcePoint" />
            <mxPoint x="568" y="292" as="targetPoint" />
            <Array as="points">
              <mxPoint x="480" y="292" />
              <mxPoint x="480" y="220" />
              <mxPoint x="600" y="220" />
              <mxPoint x="600" y="292" />
            </Array>
          </mxGeometry>
        </mxCell>
        <mxCell id="x96Iq67qb-lbHD9PgbYm-19" value="1 → L" style="text;strokeColor=none;align=center;fillColor=none;html=1;verticalAlign=middle;whiteSpace=wrap;rounded=0;" vertex="1" parent="1">
          <mxGeometry x="510" y="220" width="60" height="30" as="geometry" />
        </mxCell>
        <mxCell id="x96Iq67qb-lbHD9PgbYm-21" value="0, ␣&amp;nbsp;→ 1, L" style="text;strokeColor=none;align=center;fillColor=none;html=1;verticalAlign=middle;whiteSpace=wrap;rounded=0;" vertex="1" parent="1">
          <mxGeometry x="600" y="320" width="60" height="30" as="geometry" />
        </mxCell>
      </root>
    </mxGraphModel>
  </diagram>
</mxfile>
